<svg width="30" height="30" viewBox="0 0 30 30" fill="none" xmlns="http://www.w3.org/2000/svg">
<path d="M11.5747 13.8506C13.5818 13.8506 15.2088 12.2236 15.2088 10.2166C15.2088 8.20954 13.5818 6.58252 11.5747 6.58252C9.56769 6.58252 7.94067 8.20954 7.94067 10.2166C7.94067 12.2236 9.56769 13.8506 11.5747 13.8506Z" stroke="#068042" stroke-width="1.805" stroke-linecap="round" stroke-linejoin="round"/>
<path d="M4.24634 23.9107V21.8409C4.24634 19.4343 6.19573 17.4849 8.6024 17.4849H15.1245C17.5311 17.4849 19.4805 19.4343 19.4805 21.8409V23.9107" stroke="#068042" stroke-width="1.805" stroke-linecap="round" stroke-linejoin="round"/>
<path d="M20.6479 14.8856C22.1365 14.8856 23.3433 13.6788 23.3433 12.1901C23.3433 10.7014 22.1365 9.49463 20.6479 9.49463C19.1592 9.49463 17.9524 10.7014 17.9524 12.1901C17.9524 13.6788 19.1592 14.8856 20.6479 14.8856Z" stroke="#068042" stroke-width="1.805" stroke-linecap="round" stroke-linejoin="round"/>
<path d="M21.418 17.5815H23.2711C25.052 17.5815 26.496 19.0255 26.496 20.8065V22.3467" stroke="#068042" stroke-width="1.805" stroke-linecap="round" stroke-linejoin="round"/>
</svg>
